<?xml version="1.0"?>
<svg xmlns="http://www.w3.org/2000/svg" height="8px" width="8px" id="Camada_1" data-name="Camada 1" viewBox="0 0 8 8">
  <defs>
    <linearGradient id="Gradiente_sem_nome_7" x1="5.5003" y1="1.4015" x2="2.4997" y2="6.5985" gradientTransform="matrix(-1, 0, 0, 1, 8, 0)" gradientUnits="userSpaceOnUse">
      <stop offset="0" stop-color="#ea6422"/>
      <stop offset="1" stop-color="#d93e04"/>
    </linearGradient>
  </defs>
  <circle cx="4" cy="4" r="3" fill="url(#Gradiente_sem_nome_7)"/>
  <path d="M5.5,5.875a.3745.3745,0,0,1-.2656-.1094l-2.9995-3a.3749.3749,0,0,1,.53-.53l3.0005,3A.375.375,0,0,1,5.5,5.875Z" fill="#fff"/>
  <path d="M2.5,5.875a.375.375,0,0,1-.2651-.6406l3-2.9995a.3753.3753,0,0,1,.5312.53l-3,3.0005A.3725.3725,0,0,1,2.5,5.875Z" fill="#fff"/>
</svg>
