<?xml version="1.0"?>
<svg xmlns="http://www.w3.org/2000/svg" height="24px" width="24px" id="Camada_1" data-name="Camada 1" viewBox="0 0 24 24">
  <defs>
    <linearGradient id="Gradiente_sem_nome_6" x1="3.2589" y1="1.1183" x2="7.7411" y2="8.8817" gradientUnits="userSpaceOnUse">
      <stop offset="0" stop-color="#38d4e2"/>
      <stop offset="1" stop-color="#107dc3"/>
    </linearGradient>
    <linearGradient id="Gradiente_sem_nome_6-2" x1="3.2589" y1="15.1183" x2="7.7411" y2="22.8817" gradientUnits="userSpaceOnUse">
      <stop offset="0" stop-color="#38d4e2"/>
      <stop offset="1" stop-color="#107dc3"/>
    </linearGradient>
    <linearGradient id="Gradiente_sem_nome_232" x1="16.5593" y1="8.3226" x2="19.7145" y2="13.7874" gradientUnits="userSpaceOnUse">
      <stop offset="0" stop-color="#afd14f"/>
      <stop offset="1" stop-color="#23a850"/>
    </linearGradient>
  </defs>
  <rect x="1" y="2" width="9" height="6" rx="1" fill="url(#Gradiente_sem_nome_6)"/>
  <rect x="1" y="16" width="9" height="6" rx="1" fill="url(#Gradiente_sem_nome_6-2)"/>
  <path d="M22,6a1,1,0,0,0-1,1,4,4,0,0,1-4,4V8.934a.5.5,0,0,0-.7771-.4159l-4.5991,3.066a.5.5,0,0,0,0,.8318l4.5991,3.066A.5.5,0,0,0,17,15.066V13a6,6,0,0,0,6-6A1,1,0,0,0,22,6Z" fill="url(#Gradiente_sem_nome_232)"/>
</svg>
