<svg height="24px" width="24px" id="Camada_1" data-name="Camada 1" xmlns="http://www.w3.org/2000/svg" xmlns:xlink="http://www.w3.org/1999/xlink" viewBox="0 0 24 24"><defs><style>.cls-1{fill:#b5b5b5;}.cls-2{fill:#fff;}.cls-3{fill:#8f8f8f;}.cls-4{opacity:0.49;fill:url(#Gradiente_sem_nome_85);}.cls-5{fill:url(#Gradiente_sem_nome_93);}</style><linearGradient id="Gradiente_sem_nome_85" x1="-0.4578" y1="9.0952" x2="2.3426" y2="13.9457" gradientTransform="matrix(-1, 0, 0, 1, 15.828, 0)" gradientUnits="userSpaceOnUse"><stop offset="0" stop-color="#9dcdf2"/><stop offset="1" stop-color="#84c1ef"/></linearGradient><linearGradient id="Gradiente_sem_nome_93" x1="-4.5036" y1="11.0253" x2="1.4369" y2="16.9657" gradientTransform="matrix(-1, 0, 0, 1, 15.828, 0)" gradientUnits="userSpaceOnUse"><stop offset="0" stop-color="#8c9197"/><stop offset="1" stop-color="#6f767d"/></linearGradient></defs><rect class="cls-1" x="4" y="2" width="16" height="20" rx="1.1098"/><rect class="cls-2" x="5" y="3" width="14" height="18" rx="0.9848"/><rect class="cls-3" x="7" y="6" width="10" height="1" rx="0.2282"/><rect class="cls-3" x="7" y="8" width="10" height="1" rx="0.2282"/><rect class="cls-3" x="7" y="10" width="10" height="1" rx="0.2282"/><rect class="cls-3" x="7" y="12" width="10" height="1" rx="0.2282"/><rect class="cls-3" x="7" y="14" width="10" height="1" rx="0.2282"/><rect class="cls-3" x="7" y="16" width="10" height="1" rx="0.2282"/><circle class="cls-4" cx="14.8856" cy="11.5205" r="2.8"/><path class="cls-5" d="M11.2483,13.62a4.19,4.19,0,0,0,4.7537,1.9337l3.2466,5.6233a1.0053,1.0053,0,0,0,1.3733.368l.0774-.0447a1.0054,1.0054,0,0,0,.368-1.3733l-3.2466-5.6232a4.1934,4.1934,0,1,0-6.5724-.8838Zm2.2373-4.5248a2.8,2.8,0,1,1-1.0249,3.8249A2.8,2.8,0,0,1,13.4856,9.0956Z"/></svg>