<svg height="24px" width="24px" id="Camada_1" data-name="Camada 1" xmlns="http://www.w3.org/2000/svg" xmlns:xlink="http://www.w3.org/1999/xlink" viewBox="0 0 24 24"><defs><style>.cls-1{fill:none;}.cls-2{fill:#b5b5b5;}.cls-3{fill:#fff;}.cls-4{fill:#8f8f8f;}.cls-5{clip-path:url(#clip-path);}.cls-6{fill:#ffdaa6;}.cls-7{fill:#1a1a1a;}.cls-8{fill:url(#Gradiente_sem_nome_300);}.cls-9{opacity:0.49;fill:url(#Gradiente_sem_nome_85);}.cls-10{fill:url(#Gradiente_sem_nome_93);}</style><clipPath id="clip-path"><path class="cls-1" d="M15.5412,13.4059l.0031,3.2086a.1535.1535,0,0,0,.2559.1194l2.46-2.06Z"/></clipPath><linearGradient id="Gradiente_sem_nome_300" x1="17.0477" y1="6.3315" x2="21.825" y2="11.1089" gradientUnits="userSpaceOnUse"><stop offset="0" stop-color="#ffb253"/><stop offset="1" stop-color="#ff9c22"/></linearGradient><linearGradient id="Gradiente_sem_nome_85" x1="7.5717" y1="7.0952" x2="10.3721" y2="11.9457" gradientUnits="userSpaceOnUse"><stop offset="0" stop-color="#9dcdf2"/><stop offset="1" stop-color="#84c1ef"/></linearGradient><linearGradient id="Gradiente_sem_nome_93" x1="3.5259" y1="9.0252" x2="9.4664" y2="14.9657" gradientUnits="userSpaceOnUse"><stop offset="0" stop-color="#8c9197"/><stop offset="1" stop-color="#6f767d"/></linearGradient></defs><rect class="cls-2" x="4" y="2" width="16" height="20" rx="1.1098"/><rect class="cls-3" x="5" y="3" width="14" height="18" rx="0.9848"/><rect class="cls-4" x="7" y="6" width="10" height="1" rx="0.2282"/><rect class="cls-4" x="7" y="8" width="10" height="1" rx="0.2282"/><rect class="cls-4" x="7" y="10" width="10" height="1" rx="0.2282"/><rect class="cls-4" x="7" y="12" width="10" height="1" rx="0.2282"/><rect class="cls-4" x="7" y="14" width="10" height="1" rx="0.2282"/><rect class="cls-4" x="7" y="16" width="10" height="1" rx="0.2282"/><g class="cls-5"><rect class="cls-6" x="14.7667" y="13.8993" width="3" height="3" transform="translate(-4.5644 23.6339) rotate(-65)"/><rect class="cls-7" x="15.1997" y="14.579" width="1.5" height="3" transform="translate(-5.3635 23.7391) rotate(-65)"/></g><path class="cls-8" d="M22.7933,3.5471l-1.6425-.7659a.5939.5939,0,0,0-.7892.2872L19.3447,5.2492l-3.8035,8.1567L18.26,14.6738,22.0637,6.517l1.0169-2.1807A.5938.5938,0,0,0,22.7933,3.5471Z"/><circle class="cls-9" cx="8.9719" cy="9.5205" r="2.8"/><path class="cls-10" d="M11.0719,5.8831a4.1915,4.1915,0,0,0-5.0351,6.6211L2.79,18.1274a1.0054,1.0054,0,0,0,.368,1.3733l.0774.0447a1.0053,1.0053,0,0,0,1.3733-.368l3.2466-5.6233a4.1915,4.1915,0,0,0,3.2164-7.671Zm.3249,5.0374a2.8,2.8,0,1,1-1.0249-3.8249A2.8,2.8,0,0,1,11.3968,10.9205Z"/></svg>