<svg height="24px" width="24px" xmlns="http://www.w3.org/2000/svg" xmlns:xlink="http://www.w3.org/1999/xlink" viewBox="0 0 24 24"><defs><style>.cls-1{fill:#b5b5b5;}.cls-2{fill:#fff;}.cls-3{fill:url(#Gradiente_sem_nome_10);}</style><linearGradient id="Gradiente_sem_nome_10" x1="4.8558" y1="-0.0081" x2="13.0503" y2="14.1853" gradientUnits="userSpaceOnUse"><stop offset="0" stop-color="#363739"/><stop offset="1" stop-color="#212224"/></linearGradient></defs><g id="Camada_1" data-name="Camada 1"><rect class="cls-1" x="2" y="2" width="19" height="19" rx="2.6855"/><rect class="cls-2" x="3" y="3" width="17" height="17" rx="1.7577"/></g><g id="Camada_2" data-name="Camada 2"><path class="cls-3" d="M20,6V5H18V3H17V5H14V3H13V5H10V3H9V5H6V3H5V5H3V6H5V9H3v1H5v3H3v1H5v3H3v1H5v2H6V18H9v2h1V18h3v2h1V18h3v2h1V18h2V17H18V14h2V13H18V10h2V9H18V6ZM13,6V9H10V6ZM6,6H9V9H6Zm0,4H9v3H6Zm0,7V14H9v3Zm7,0H10V14h3Zm-3-4V10h3v3Zm7,4H14V14h3Zm0-4H14V10h3Zm0-4H14V6h3Z"/></g></svg>