<svg height="24px" width="24px" id="Camada_1" data-name="Camada 1" xmlns="http://www.w3.org/2000/svg" xmlns:xlink="http://www.w3.org/1999/xlink" viewBox="0 0 24 24"><defs><style>.cls-1{fill:url(#Gradiente_sem_nome_2);}</style><linearGradient id="Gradiente_sem_nome_2" x1="7.8013" y1="4.7276" x2="16.1987" y2="19.2724" gradientUnits="userSpaceOnUse"><stop offset="0" stop-color="#199ae1"/><stop offset="1" stop-color="#017ad5"/></linearGradient></defs><path class="cls-1" d="M13,11h5L16.8912,9.8912a.5532.5532,0,0,1,0-.7824l.6376-.6376a.5532.5532,0,0,1,.7824,0l3.1376,3.1376a.5532.5532,0,0,1,0,.7824l-3.1376,3.1376a.5532.5532,0,0,1-.7824,0l-.6376-.6376a.5532.5532,0,0,1,0-.7824L18,13H13v5l1.1088-1.1088a.5532.5532,0,0,1,.7824,0l.6376.6376a.5532.5532,0,0,1,0,.7824l-3.1376,3.1376a.5532.5532,0,0,1-.7824,0L8.4712,18.3112a.5532.5532,0,0,1,0-.7824l.6376-.6376a.5532.5532,0,0,1,.7824,0L11,18V13H6l1.1088,1.1088a.5532.5532,0,0,1,0,.7824l-.6376.6376a.5532.5532,0,0,1-.7824,0L2.5512,12.3912a.5532.5532,0,0,1,0-.7824L5.6888,8.4712a.5532.5532,0,0,1,.7824,0l.6376.6376a.5532.5532,0,0,1,0,.7824L6,11h5V6L9.8912,7.1088a.5532.5532,0,0,1-.7824,0l-.6376-.6376a.5532.5532,0,0,1,0-.7824l3.1376-3.1376a.5532.5532,0,0,1,.7824,0l3.1376,3.1376a.5532.5532,0,0,1,0,.7824l-.6376.6376a.5532.5532,0,0,1-.7824,0L13,6Z"/></svg>