<svg height="24px" width="24px" xmlns="http://www.w3.org/2000/svg" xmlns:xlink="http://www.w3.org/1999/xlink" viewBox="0 0 24 24"><defs><style>.cls-1{fill:#b5b5b5;}.cls-2{fill:#fff;}.cls-3{fill:url(#Gradiente_sem_nome_10);}.cls-4{fill:none;}</style><linearGradient id="Gradiente_sem_nome_10" x1="8.1118" y1="18.1585" x2="14.162" y2="7.6793" gradientTransform="matrix(1, 0, 0, -1, -1, 25)" gradientUnits="userSpaceOnUse"><stop offset="0" stop-color="#363739"/><stop offset="1" stop-color="#212224"/></linearGradient></defs><g id="Camada_1" data-name="Camada 1"><rect class="cls-1" x="2" y="2" width="20" height="20" rx="2.8268"/><rect class="cls-2" x="3" y="3" width="18" height="18" rx="1.8611"/></g><g id="Camada_2" data-name="Camada 2"><path id="text2044" class="cls-3" d="M19.5,19.5043c-1.3281-.1165-1.4679-.1154-1.7708-1.8164L15.539,4.5h-.4183L8.1761,16.15c-1.8407,3.099-2.2769,3.1678-3.2089,3.3542v.56h4.56v-.56c-1.1883-.1165-1.3747-.0455-1.3747-.628a2.76,2.76,0,0,1,.466-1.4447L9.9469,15.08H15.073l.466,2.771a5.7367,5.7367,0,0,1,.0466.6059c0,.8854-.1231.9076-1.6143,1.0474v.56H19.5v-.56M10.4362,13.96l3.495-6.0581L14.9565,13.96h-4.52"/><rect class="cls-4" width="24" height="24"/></g></svg>