<svg height="24px" width="24px" xmlns="http://www.w3.org/2000/svg" xmlns:xlink="http://www.w3.org/1999/xlink" viewBox="0 0 24 24"><defs><style>.cls-1{fill:url(#Gradiente_sem_nome_29);}.cls-2{fill:url(#Gradiente_sem_nome_323);}.cls-3{fill:url(#Gradiente_sem_nome_235);}.cls-4{fill:url(#Gradiente_sem_nome_41);}</style><linearGradient id="Gradiente_sem_nome_29" x1="7.558" y1="14.5001" x2="21.4418" y2="14.5001" gradientTransform="matrix(1.0403, 0.0845, 0.0011, 1.0437, -0.3725, -1.1537)" gradientUnits="userSpaceOnUse"><stop offset="0" stop-color="#4c565e"/><stop offset="1" stop-color="#4c565e"/></linearGradient><linearGradient id="Gradiente_sem_nome_323" x1="4.9993" y1="2.0706" x2="13.0007" y2="15.9294" gradientUnits="userSpaceOnUse"><stop offset="0" stop-color="#8f99a1"/><stop offset="1" stop-color="#74828f"/></linearGradient><linearGradient id="Gradiente_sem_nome_235" x1="5.9995" y1="3.803" x2="12.0005" y2="14.197" gradientUnits="userSpaceOnUse"><stop offset="0" stop-color="#d1fffc"/><stop offset="1" stop-color="#96dcff"/></linearGradient><linearGradient id="Gradiente_sem_nome_41" x1="6.9579" y1="5.4629" x2="10.9084" y2="12.3054" gradientUnits="userSpaceOnUse"><stop offset="0" stop-color="#343a40"/><stop offset="1" stop-color="#343a40"/></linearGradient></defs><g id="Camada_1" data-name="Camada 1"><path class="cls-1" d="M20.4551,22.91a1.4976,1.4976,0,0,1-1.1026-.4825L7.8979,10.0176a1.5,1.5,0,0,1,2.2042-2.0352l11.4555,12.41A1.5,1.5,0,0,1,20.4551,22.91Z"/><circle class="cls-2" cx="9" cy="9" r="8"/><circle class="cls-3" cx="9" cy="9" r="6"/></g><g id="Camada_5" data-name="Camada 5"><path class="cls-4" d="M9.5972,5h-1.42a.7531.7531,0,0,0-.3366.0794L6.217,5.8915A.3925.3925,0,0,0,6,6.2426V7.469a.1947.1947,0,0,0,.2631.1823L8,7v5.5972A.4027.4027,0,0,0,8.4028,13H9.5972A.4027.4027,0,0,0,10,12.5972V5.4028A.4027.4027,0,0,0,9.5972,5Z"/></g></svg>