<svg height="24px" width="24px" id="Camada_1" data-name="Camada 1" xmlns="http://www.w3.org/2000/svg" xmlns:xlink="http://www.w3.org/1999/xlink" viewBox="0 0 24 24"><defs><style>.cls-1{fill:url(#Gradiente_sem_nome_5);}.cls-2{fill:url(#Gradiente_sem_nome_4);}.cls-3{fill:url(#Gradiente_sem_nome_4-2);}</style><linearGradient id="Gradiente_sem_nome_5" x1="7.5549" y1="4.3009" x2="16.4451" y2="19.6991" gradientUnits="userSpaceOnUse"><stop offset="0" stop-color="#51c255"/><stop offset="1" stop-color="#3b963e"/></linearGradient><linearGradient id="Gradiente_sem_nome_4" x1="11.0472" y1="7.6654" x2="12.812" y2="10.7222" gradientUnits="userSpaceOnUse"><stop offset="0" stop-color="#ff7d19"/><stop offset="1" stop-color="#f03043"/></linearGradient><linearGradient id="Gradiente_sem_nome_4-2" x1="8.9592" y1="6.7335" x2="15.0415" y2="17.2684" xlink:href="#Gradiente_sem_nome_4"/></defs><path class="cls-1" d="M12,4.05c.6545.5153,2,3.2556,2,7.95s-1.3455,7.4347-2,7.95c-.6545-.5153-2-3.2556-2-7.95s1.3455-7.4347,2-7.95M12,2C9.7909,2,8,6.4771,8,12s1.7909,10,4,10,4-4.4771,4-10S14.2091,2,12,2Z"/><path class="cls-2" d="M12,10c.6841,0,1.3138.035,1.9141.0859a18.8015,18.8015,0,0,0-.2815-2.028C13.1,8.0228,12.5573,8,12,8s-1.1.0228-1.6326.0579a18.8015,18.8015,0,0,0-.2815,2.028C10.6862,10.035,11.3159,10,12,10Z"/><path class="cls-3" d="M15.7121,8.2879c.1059.6611.1825,1.3575.23,2.0795,2.2822.4455,3.6609,1.1918,4.008,1.6326-.5154.6545-3.2557,2-7.95,2s-7.4347-1.3455-7.95-2c.3471-.4408,1.7258-1.1871,4.008-1.6326.0475-.722.1241-1.4184.23-2.0795C4.6048,8.8779,2,10.316,2,12c0,2.2091,4.4772,4,10,4s10-1.7909,10-4C22,10.316,19.3952,8.8779,15.7121,8.2879Z"/></svg>