<svg height="24px" width="24px" id="Camada_1" data-name="Camada 1" xmlns="http://www.w3.org/2000/svg" xmlns:xlink="http://www.w3.org/1999/xlink" viewBox="0 0 24 24"><defs><style>.cls-1{fill:#fff;}.cls-2{fill:url(#Gradiente_sem_nome_10);}</style><linearGradient id="Gradiente_sem_nome_10" x1="9.5112" y1="4.2251" x2="16.4888" y2="16.3108" gradientUnits="userSpaceOnUse"><stop offset="0" stop-color="#363739"/><stop offset="1" stop-color="#212224"/></linearGradient></defs><rect class="cls-1" x="3" y="3" width="18" height="18" rx="2.5441"/><path class="cls-2" d="M17.4028,6H6.5972A.5972.5972,0,0,0,6,6.5972V8.4028A.5972.5972,0,0,0,6.5972,9H10v8.4028A.5972.5972,0,0,0,10.5972,18h2.8056A.5972.5972,0,0,0,14,17.4028V9h3.4028A.5972.5972,0,0,0,18,8.4028V6.5972A.5972.5972,0,0,0,17.4028,6Z"/></svg>