<svg height="24px" width="24px" id="Camada_1" data-name="Camada 1" xmlns="http://www.w3.org/2000/svg" xmlns:xlink="http://www.w3.org/1999/xlink" viewBox="0 0 24 24"><defs><style>.cls-1{fill:#b5b5b5;}.cls-2{fill:#fff;}.cls-3{fill:#949494;}.cls-4{fill:#a1a1a1;}.cls-5{fill:url(#Gradiente_sem_nome_10);}</style><linearGradient id="Gradiente_sem_nome_10" x1="6.4103" y1="21.6817" x2="13.3043" y2="9.7409" gradientUnits="userSpaceOnUse"><stop offset="0" stop-color="#363739"/><stop offset="1" stop-color="#212224"/></linearGradient></defs><rect class="cls-1" x="2" y="4" width="20" height="16" rx="1.1098"/><rect class="cls-2" x="3" y="5" width="18" height="14" rx="0.9848"/><path class="cls-3" d="M4.999,17.75a.75.75,0,0,1-.084-1.4951A40.9951,40.9951,0,0,0,18.6641,12.33a.75.75,0,1,1,.6718,1.3413A42.479,42.479,0,0,1,5.085,17.7451C5.0562,17.748,5.0273,17.75,4.999,17.75Z"/><path class="cls-4" d="M9.1982,13.749a8.3463,8.3463,0,0,1-4.6118-1.291.75.75,0,0,1,.8045-1.266l.0227.015a7.5965,7.5965,0,0,0,5.895.7915,11.2351,11.2351,0,0,0,7.043-5.3745A.75.75,0,0,1,19.675,7.33c-.0083.0156-.0172.0308-.0266.0458a12.7394,12.7394,0,0,1-7.997,6.083A10.7518,10.7518,0,0,1,9.1982,13.749Z"/><path class="cls-5" d="M19.2647,18H4.7353A.7353.7353,0,0,1,4,17.2647V6.7353A.7353.7353,0,0,1,4.7353,6H19.2647A.7353.7353,0,0,1,20,6.7353V17.2647A.7353.7353,0,0,1,19.2647,18ZM19,16.6118V7.3882A.3882.3882,0,0,0,18.6118,7H5.3882A.3882.3882,0,0,0,5,7.3882v9.2236A.3882.3882,0,0,0,5.3882,17H18.6118A.3882.3882,0,0,0,19,16.6118Z"/></svg>