<svg height="24px" width="24px" id="Camada_1" data-name="Camada 1" xmlns="http://www.w3.org/2000/svg" xmlns:xlink="http://www.w3.org/1999/xlink" viewBox="0 0 24 24"><defs><style>.cls-1{fill:url(#Gradiente_sem_nome_3);}.cls-2{fill:url(#Gradiente_sem_nome_3-2);}</style><linearGradient id="Gradiente_sem_nome_3" x1="4.1864" y1="8.4319" x2="10.4928" y2="19.3548" gradientUnits="userSpaceOnUse"><stop offset="0" stop-color="#ffa321"/><stop offset="1" stop-color="#f5352e"/></linearGradient><linearGradient id="Gradiente_sem_nome_3-2" x1="8.3083" y1="2.7555" x2="18.1599" y2="19.8189" xlink:href="#Gradiente_sem_nome_3"/></defs><path class="cls-1" d="M11.4722,18.7778l2.5822-2.5822a.2767.2767,0,0,0,0-.3912l-2.5822-2.5822A.2766.2766,0,0,0,11,13.4178V15c-4.5-.18-8-1.46-8-3,0-.91,1.2-1.72,3.11-2.27L6.4,7.7C3.17,8.57,1,10.17,1,12c0,2.61,4.39,4.75,10,5v1.5822A.2766.2766,0,0,0,11.4722,18.7778Z"/><path class="cls-2" d="M16.55,7.45C15.77,3.64,14,1,12,1,9.39,1,7.25,5.39,7,11H5.4178a.2766.2766,0,0,0-.1956.4722l2.5822,2.5822a.2767.2767,0,0,0,.3912,0l2.5822-2.5822A.2766.2766,0,0,0,10.5822,11H9c.18-4.5,1.46-8,3-8,1.06,0,2,1.65,2.5,4.13A24.8579,24.8579,0,0,0,12,7l-1.57.05-.29,2.01L12,9a25.832,25.832,0,0,1,2.85.15A25.832,25.832,0,0,1,15,12c0,4.97-1.34,9-3,9-.91,0-1.72-1.2-2.27-3.11L7.7,17.6C8.57,20.83,10.17,23,12,23c2.76,0,5-4.92,5-11a24.8579,24.8579,0,0,0-.13-2.5C19.35,10,21,10.94,21,12c0,.91-1.2,1.72-3.11,2.27L17.6,16.3c3.23-.87,5.4-2.47,5.4-4.3C23,10,20.36,8.23,16.55,7.45Z"/></svg>