<svg height="8px" width="8px" id="Camada_1" data-name="Camada 1" xmlns="http://www.w3.org/2000/svg" xmlns:xlink="http://www.w3.org/1999/xlink" viewBox="0 0 8 8"><defs><style>.cls-1{fill:url(#Gradiente_sem_nome_3);}</style><linearGradient id="Gradiente_sem_nome_3" x1="5.8153" y1="1.3854" x2="3.0912" y2="6.1038" gradientTransform="matrix(-1, 0, 0, 1, 8, 0)" gradientUnits="userSpaceOnUse"><stop offset="0" stop-color="#82d176"/><stop offset="1" stop-color="#3fbf46"/></linearGradient></defs><path class="cls-1" d="M1.1641,2h.6718A.1641.1641,0,0,1,2,2.1641V3.8459L4.7433,2.0278A.1652.1652,0,0,1,5,2.1644V3H6.7549A.2451.2451,0,0,1,7,3.2451v1.51A.2451.2451,0,0,1,6.7549,5H5v.8356a.1652.1652,0,0,1-.2567.1366L2,4.1541V5.8359A.1641.1641,0,0,1,1.8359,6H1.1641A.1641.1641,0,0,1,1,5.8359V2.1641A.1641.1641,0,0,1,1.1641,2Z"/></svg>