<svg height="24px" width="24px" id="Camada_1" data-name="Camada 1" xmlns="http://www.w3.org/2000/svg" xmlns:xlink="http://www.w3.org/1999/xlink" viewBox="0 0 24 24"><defs><style>.cls-1{fill:url(#Gradiente_sem_nome_3);}.cls-2{fill:url(#Gradiente_sem_nome_4);}.cls-3{fill:url(#Gradiente_sem_nome_2);}</style><linearGradient id="Gradiente_sem_nome_3" x1="5.668" y1="4.3618" x2="16.0531" y2="22.3493" gradientUnits="userSpaceOnUse"><stop offset="0" stop-color="#199ae1"/><stop offset="1" stop-color="#017ad5"/></linearGradient><linearGradient id="Gradiente_sem_nome_4" x1="10.4297" y1="15.9631" x2="13.5033" y2="21.2868" gradientUnits="userSpaceOnUse"><stop offset="0" stop-color="#0f395c"/><stop offset="1" stop-color="#092a50"/></linearGradient><linearGradient id="Gradiente_sem_nome_2" x1="7.9495" y1="4.5973" x2="14.227" y2="15.4702" gradientUnits="userSpaceOnUse"><stop offset="0" stop-color="#086496"/><stop offset="1" stop-color="#004f8a"/></linearGradient></defs><path class="cls-1" d="M12,3,9,6.375V4.4028A.4028.4028,0,0,0,8.5972,4H6.4028A.4028.4028,0,0,0,6,4.4028V9.75L4,12H5v8.1666A.8333.8333,0,0,0,5.8333,21H18.1667A.8333.8333,0,0,0,19,20.1666V12h1Z"/><path class="cls-2" d="M10.5,16h3a.5.5,0,0,1,.5.5V21a0,0,0,0,1,0,0H10a0,0,0,0,1,0,0V16.5A.5.5,0,0,1,10.5,16Z"/><path class="cls-3" d="M20.4193,11.3547l-7.853-8.7255a.7618.7618,0,0,0-1.1326,0l-7.853,8.7255A.3867.3867,0,0,0,3.8682,12H5l6.766-7.7325a.3109.3109,0,0,1,.468,0L19,12h1.1318A.3867.3867,0,0,0,20.4193,11.3547Z"/></svg>