<svg height="8px" width="8px" id="Camada_1" data-name="Camada 1" xmlns="http://www.w3.org/2000/svg" xmlns:xlink="http://www.w3.org/1999/xlink" viewBox="0 0 8 8"><defs><style>.cls-1{fill:url(#Gradiente_sem_nome_3);}</style><linearGradient id="Gradiente_sem_nome_3" x1="3.0912" y1="1.8962" x2="5.8153" y2="6.6146" gradientUnits="userSpaceOnUse"><stop offset="0" stop-color="#82d176"/><stop offset="1" stop-color="#3fbf46"/></linearGradient></defs><path class="cls-1" d="M6.8359,2H6.1641A.1641.1641,0,0,0,6,2.1641V3.8459L3.2567,2.0278A.1652.1652,0,0,0,3,2.1644V3H1.2451A.2451.2451,0,0,0,1,3.2451v1.51A.2451.2451,0,0,0,1.2451,5H3v.8356a.1652.1652,0,0,0,.2567.1366L6,4.1541V5.8359A.1641.1641,0,0,0,6.1641,6h.6718A.1641.1641,0,0,0,7,5.8359V2.1641A.1641.1641,0,0,0,6.8359,2Z"/></svg>