<svg width="24px" height="24px" id="Camada_1" data-name="Camada 1" xmlns="http://www.w3.org/2000/svg" viewBox="0 0 24 24"><defs><style>.cls-1{fill:#b5b5b5;}.cls-2{fill:#fff;}.cls-3{fill:#729fcf;}.cls-4{fill:#f57900;}</style></defs><rect class="cls-1" x="2" y="4" width="20" height="16" rx="1.1098"/><rect class="cls-2" x="3" y="5" width="18" height="14" rx="0.9848"/><path class="cls-3" d="M4.999,17.75a.75.75,0,0,1-.084-1.4951A40.9942,40.9942,0,0,0,18.6641,12.33a.75.75,0,1,1,.6718,1.3413A42.4794,42.4794,0,0,1,5.085,17.7451C5.0562,17.748,5.0273,17.75,4.999,17.75Z"/><path class="cls-4" d="M9.1982,13.749a8.3461,8.3461,0,0,1-4.6118-1.291.75.75,0,1,1,.8272-1.251,7.5964,7.5964,0,0,0,5.895.7915,11.2352,11.2352,0,0,0,7.043-5.3745.75.75,0,1,1,1.2968.752,12.7394,12.7394,0,0,1-7.997,6.083A10.7471,10.7471,0,0,1,9.1982,13.749Z"/></svg>