<svg height="8px" width="8px" id="Camada_1" data-name="Camada 1" xmlns="http://www.w3.org/2000/svg" xmlns:xlink="http://www.w3.org/1999/xlink" viewBox="0 0 8 8"><defs><style>.cls-1{fill:url(#Gradiente_sem_nome_7);}</style><linearGradient id="Gradiente_sem_nome_7" x1="2.5604" y1="1.5065" x2="5.4396" y2="6.4935" gradientUnits="userSpaceOnUse"><stop offset="0" stop-color="#199ae1"/><stop offset="1" stop-color="#017ad5"/></linearGradient></defs><path class="cls-1" d="M6.402,3H5V1.598A.5981.5981,0,0,0,4.402,1H3.598A.5981.5981,0,0,0,3,1.598V3H1.598A.5981.5981,0,0,0,1,3.598v.8039A.5981.5981,0,0,0,1.598,5H3V6.4019A.5981.5981,0,0,0,3.598,7h.804A.5981.5981,0,0,0,5,6.4019V5H6.402A.5981.5981,0,0,0,7,4.4019V3.598A.5981.5981,0,0,0,6.402,3Z"/></svg>