<svg width="24px" height="24px" id="Camada_1" data-name="Camada 1" xmlns="http://www.w3.org/2000/svg" xmlns:xlink="http://www.w3.org/1999/xlink" viewBox="0 0 24 24"><defs><style>.cls-1{fill:#b5b5b5;}.cls-2{fill:#fff;}.cls-3{fill:#8f8f8f;}.cls-4{fill:#53c23d;}.cls-5{fill:url(#Gradiente_sem_nome_21);}</style><linearGradient id="Gradiente_sem_nome_21" x1="3.8607" y1="4.1393" x2="13.1393" y2="13.4178" gradientUnits="userSpaceOnUse"><stop offset="0" stop-color="#f55f51"/><stop offset="1" stop-color="#e32e1e"/></linearGradient></defs><rect class="cls-1" x="4" y="2" width="16" height="20" rx="1.1098"/><rect class="cls-2" x="5" y="3" width="14" height="18" rx="0.9848"/><rect class="cls-3" x="7" y="6" width="10" height="1" rx="0.2282"/><rect class="cls-3" x="7" y="8" width="10" height="1" rx="0.2282"/><rect class="cls-3" x="7" y="10" width="10" height="1" rx="0.2282"/><rect class="cls-3" x="7" y="12" width="10" height="1" rx="0.2282"/><rect class="cls-3" x="7" y="14" width="10" height="1" rx="0.2282"/><rect class="cls-3" x="7" y="16" width="10" height="1" rx="0.2282"/><path class="cls-4" d="M22.397,6H20V3.603A.6029.6029,0,0,0,19.397,3H17.603A.6029.6029,0,0,0,17,3.603V6H14.603A.6029.6029,0,0,0,14,6.603V8.397A.603.603,0,0,0,14.603,9H17v2.397a.603.603,0,0,0,.603.603h1.794A.603.603,0,0,0,20,11.397V9h2.397A.603.603,0,0,0,23,8.397V6.603A.6029.6029,0,0,0,22.397,6Z"/><path class="cls-5" d="M6,2V15.5031c0,.1488.2413.2073.3445.0834L8.5,13l2.1555,2.5865c.1032.1239.3445.0654.3445-.0834V2Z"/></svg>