<svg height="24px" width="24px" id="Camada_1" data-name="Camada 1" xmlns="http://www.w3.org/2000/svg" xmlns:xlink="http://www.w3.org/1999/xlink" viewBox="0 0 24 24"><defs><style>.cls-1{fill:url(#Gradiente_sem_nome_6);}.cls-2{fill:url(#Gradiente_sem_nome_6-2);}.cls-3{fill:url(#Gradiente_sem_nome_232);}</style><linearGradient id="Gradiente_sem_nome_6" x1="3.2589" y1="1.1183" x2="7.7411" y2="8.8817" gradientUnits="userSpaceOnUse"><stop offset="0" stop-color="#38d4e2"/><stop offset="1" stop-color="#107dc3"/></linearGradient><linearGradient id="Gradiente_sem_nome_6-2" x1="3.2589" y1="15.1183" x2="7.7411" y2="22.8817" xlink:href="#Gradiente_sem_nome_6"/><linearGradient id="Gradiente_sem_nome_232" x1="16.5593" y1="8.3226" x2="19.7145" y2="13.7874" gradientUnits="userSpaceOnUse"><stop offset="0" stop-color="#afd14f"/><stop offset="1" stop-color="#23a850"/></linearGradient></defs><rect class="cls-1" x="1" y="2" width="9" height="6" rx="1"/><rect class="cls-2" x="1" y="16" width="9" height="6" rx="1"/><path class="cls-3" d="M22,6a1,1,0,0,0-1,1,4,4,0,0,1-4,4V8.934a.5.5,0,0,0-.7771-.4159l-4.5991,3.066a.5.5,0,0,0,0,.8318l4.5991,3.066A.5.5,0,0,0,17,15.066V13a6,6,0,0,0,6-6A1,1,0,0,0,22,6Z"/></svg>