<svg height="24px" width="24px" id="Camada_1" data-name="Camada 1" xmlns="http://www.w3.org/2000/svg" xmlns:xlink="http://www.w3.org/1999/xlink" viewBox="0 0 24 24"><defs><style>.cls-1{fill:#2e2f30;}.cls-2{clip-path:url(#clip-path);}.cls-3{fill:#383b3d;}.cls-3,.cls-5,.cls-7{fill-opacity:0.9961;}.cls-4{fill:url(#Gradiente_sem_nome_2);}.cls-5{fill:#fff;opacity:0.1;}.cls-6{fill:url(#Gradiente_sem_nome_217);}.cls-7{fill:url(#Gradiente_sem_nome_3);}.cls-8{fill:url(#Gradiente_sem_nome_490);}.cls-9{fill:url(#Gradiente_sem_nome_217-2);}.cls-10{fill:url(#Gradiente_sem_nome_181);}.cls-11{fill:url(#Gradiente_sem_nome_181-2);}.cls-12{fill:none;}</style><clipPath id="clip-path"><rect class="cls-1" y="9" width="24" height="12" rx="1.4107"/></clipPath><linearGradient id="Gradiente_sem_nome_2" x1="6.4019" y1="5.3038" x2="17.5981" y2="24.6962" gradientUnits="userSpaceOnUse"><stop offset="0" stop-color="#4c4d50"/><stop offset="1" stop-color="#37383b"/></linearGradient><linearGradient id="Gradiente_sem_nome_217" x1="8.7279" y1="13.7357" x2="15.3076" y2="25.132" gradientUnits="userSpaceOnUse"><stop offset="0" stop-color="#cfd0d1"/><stop offset="1" stop-color="#a7acb0"/></linearGradient><linearGradient id="Gradiente_sem_nome_3" x1="6.9148" y1="2.7443" x2="17.0852" y2="12.9148" gradientUnits="userSpaceOnUse"><stop offset="0" stop-color="#63666c"/><stop offset="1" stop-color="#4d5157"/></linearGradient><linearGradient id="Gradiente_sem_nome_490" x1="18.4999" y1="12.1338" x2="19.5001" y2="13.8662" gradientUnits="userSpaceOnUse"><stop offset="0" stop-color="#9bff6c"/><stop offset="1" stop-color="#82ff47"/></linearGradient><linearGradient id="Gradiente_sem_nome_217-2" x1="9.2255" y1="1.5602" x2="14.6406" y2="10.9395" xlink:href="#Gradiente_sem_nome_217"/><linearGradient id="Gradiente_sem_nome_181" x1="9.6828" y1="2.7151" x2="14.2335" y2="10.5972" gradientUnits="userSpaceOnUse"><stop offset="0" stop-color="#fff"/><stop offset="1" stop-color="#e0e4e9"/></linearGradient><linearGradient id="Gradiente_sem_nome_181-2" x1="9.1141" y1="13.7794" x2="14.9672" y2="23.9172" xlink:href="#Gradiente_sem_nome_181"/></defs><rect class="cls-1" y="9" width="24" height="12" rx="1.4107"/><g class="cls-2"><rect class="cls-3" y="9" width="24" height="12"/><polygon class="cls-4" points="0 9 0 13 0 21 24 21 24 13 24 9 0 9"/><rect class="cls-5" y="18" width="24" height="3"/></g><path class="cls-6" d="M6.7353,15H17.2647A.7353.7353,0,0,1,18,15.7353V23a1,1,0,0,1-1,1H7a1,1,0,0,1-1-1V15.7353A.7353.7353,0,0,1,6.7353,15Z"/><path class="cls-7" d="M4.125,6h15.75A1.125,1.125,0,0,1,21,7.125V9a0,0,0,0,1,0,0H3A0,0,0,0,1,3,9V7.125A1.125,1.125,0,0,1,4.125,6Z"/><circle class="cls-8" cx="19" cy="13" r="1"/><path class="cls-9" d="M7,3H17a1,1,0,0,1,1,1V9a0,0,0,0,1,0,0H6A0,0,0,0,1,6,9V4A1,1,0,0,1,7,3Z"/><path class="cls-10" d="M7.625,4h8.75A.625.625,0,0,1,17,4.625V9a0,0,0,0,1,0,0H7A0,0,0,0,1,7,9V4.625A.625.625,0,0,1,7.625,4Z"/><path class="cls-11" d="M7,15H17a0,0,0,0,1,0,0v7.3929A.6071.6071,0,0,1,16.3929,23H7.6071A.6071.6071,0,0,1,7,22.3929V15A0,0,0,0,1,7,15Z"/><rect class="cls-12" width="24" height="24"/></svg>