<svg height="24px" width="24px" id="Camada_1" data-name="Camada 1" xmlns="http://www.w3.org/2000/svg" xmlns:xlink="http://www.w3.org/1999/xlink" viewBox="0 0 24 24"><defs><style>.cls-1{fill:url(#Gradiente_sem_nome_60);}.cls-2{fill:url(#Gradiente_sem_nome_153);}.cls-3{fill:url(#Gradiente_sem_nome_185);}.cls-4{fill:url(#Gradiente_sem_nome_225);}.cls-5{fill:url(#Gradiente_sem_nome_88);}</style><linearGradient id="Gradiente_sem_nome_60" x1="5.6378" y1="2.0983" x2="17.472" y2="22.5958" gradientUnits="userSpaceOnUse"><stop offset="0" stop-color="#636abf"/><stop offset="1" stop-color="#3f47b0"/></linearGradient><linearGradient id="Gradiente_sem_nome_153" x1="8.789" y1="11.7529" x2="15.0959" y2="22.6767" gradientUnits="userSpaceOnUse"><stop offset="0" stop-color="#fff"/><stop offset="1" stop-color="#d9d9d9"/></linearGradient><linearGradient id="Gradiente_sem_nome_185" x1="9.1103" y1="1.2043" x2="14.9961" y2="11.3988" gradientUnits="userSpaceOnUse"><stop offset="0" stop-color="#fff"/><stop offset="1" stop-color="#d4d4d4"/></linearGradient><linearGradient id="Gradiente_sem_nome_225" x1="10.067" y1="16.6519" x2="13.933" y2="23.3481" gradientUnits="userSpaceOnUse"><stop offset="0" stop-color="#69d18f"/><stop offset="1" stop-color="#51c97d"/></linearGradient><linearGradient id="Gradiente_sem_nome_88" x1="13.3929" y1="4.0825" x2="15.6071" y2="7.9175" gradientUnits="userSpaceOnUse"><stop offset="0" stop-color="#393d72"/><stop offset="1" stop-color="#282c66"/></linearGradient></defs><path class="cls-1" d="M18,3V6H6V3H4.4705A1.4705,1.4705,0,0,0,3,4.4705V19.9557A1.0442,1.0442,0,0,0,4.0441,21H19.9559A1.0442,1.0442,0,0,0,21,19.9557V6Z"/><path class="cls-2" d="M6.86,13H17.14a.86.86,0,0,1,.86.86V21a0,0,0,0,1,0,0H6a0,0,0,0,1,0,0V13.86A.86.86,0,0,1,6.86,13Z"/><path class="cls-3" d="M6,3H18a0,0,0,0,1,0,0V9.2058A.7942.7942,0,0,1,17.2058,10H6.7942A.7942.7942,0,0,1,6,9.2058V3A0,0,0,0,1,6,3Z"/><rect class="cls-4" x="6" y="19" width="12" height="2"/><rect class="cls-5" x="13" y="4" width="3" height="4" rx="0.7321"/></svg>