<svg height="8px" width="8px" id="Camada_1" data-name="Camada 1" xmlns="http://www.w3.org/2000/svg" viewBox="0 0 8 8"><defs><style>.cls-1{fill:#fff;}.cls-2{fill:#ccc;}.cls-3{fill:#53c23d;}</style></defs><rect class="cls-1" x="1.75" y="0.75" width="4.5" height="6.5" rx="0.1172"/><path class="cls-2" d="M6,1V7H2V1H6M6.133.5H1.867A.367.367,0,0,0,1.5.867V7.133a.367.367,0,0,0,.367.367H6.133A.367.367,0,0,0,6.5,7.133V.867A.367.367,0,0,0,6.133.5Z"/><path class="cls-3" d="M6.799,2H6V1.201A.201.201,0,0,0,5.799,1H5.201A.201.201,0,0,0,5,1.201V2H4.201A.201.201,0,0,0,4,2.201v.598A.201.201,0,0,0,4.201,3H5v.799A.201.201,0,0,0,5.201,4h.598A.201.201,0,0,0,6,3.799V3h.799A.201.201,0,0,0,7,2.799V2.201A.201.201,0,0,0,6.799,2Z"/></svg>