<svg height="8px" width="8px" id="Camada_1" data-name="Camada 1" xmlns="http://www.w3.org/2000/svg" xmlns:xlink="http://www.w3.org/1999/xlink" viewBox="0 0 8 8"><defs><style>.cls-1{fill:#2e2f30;}.cls-2{clip-path:url(#clip-path);}.cls-3{fill:#383b3d;}.cls-3,.cls-5,.cls-7{fill-opacity:0.9961;}.cls-4{fill:url(#Gradiente_sem_nome_589);}.cls-5{fill:#fff;opacity:0.1;}.cls-6{fill:url(#Gradiente_sem_nome_217);}.cls-7{fill:url(#Gradiente_sem_nome_567);}.cls-8{fill:url(#Gradiente_sem_nome_239);}.cls-9{fill:url(#Gradiente_sem_nome_490);}.cls-10{fill:url(#Gradiente_sem_nome_217-2);}.cls-11{fill:url(#Gradiente_sem_nome_181);}.cls-12{fill:url(#Gradiente_sem_nome_181-2);}</style><clipPath id="clip-path"><rect class="cls-1" y="3" width="8" height="4" rx="0.7745"/></clipPath><linearGradient id="Gradiente_sem_nome_589" x1="2.134" y1="1.7679" x2="5.866" y2="8.2321" gradientUnits="userSpaceOnUse"><stop offset="0" stop-color="#424345"/><stop offset="1" stop-color="#2d2e30"/></linearGradient><linearGradient id="Gradiente_sem_nome_217" x1="2.9" y1="4.5839" x2="5.104" y2="8.4014" gradientUnits="userSpaceOnUse"><stop offset="0" stop-color="#cfd0d1"/><stop offset="1" stop-color="#a7acb0"/></linearGradient><linearGradient id="Gradiente_sem_nome_567" x1="2.316" y1="0.9481" x2="5.684" y2="4.316" gradientUnits="userSpaceOnUse"><stop offset="0" stop-color="#5c5f64"/><stop offset="1" stop-color="#464a4f"/></linearGradient><linearGradient id="Gradiente_sem_nome_239" x1="3.0728" y1="0.4814" x2="4.8952" y2="3.6379" gradientUnits="userSpaceOnUse"><stop offset="0" stop-color="#f7f8f9"/><stop offset="1" stop-color="#d8dde3"/></linearGradient><linearGradient id="Gradiente_sem_nome_490" x1="6.1875" y1="4.0502" x2="6.5625" y2="4.6998" gradientUnits="userSpaceOnUse"><stop offset="0" stop-color="#9bff6c"/><stop offset="1" stop-color="#82ff47"/></linearGradient><linearGradient id="Gradiente_sem_nome_217-2" x1="3.0728" y1="0.4814" x2="4.8952" y2="3.6379" xlink:href="#Gradiente_sem_nome_217"/><linearGradient id="Gradiente_sem_nome_181" x1="3.3046" y1="1.1111" x2="4.6714" y2="3.4784" gradientUnits="userSpaceOnUse"><stop offset="0" stop-color="#fff"/><stop offset="1" stop-color="#e0e4e9"/></linearGradient><linearGradient id="Gradiente_sem_nome_181-2" x1="3.1229" y1="4.7222" x2="4.8803" y2="7.7661" xlink:href="#Gradiente_sem_nome_181"/></defs><rect class="cls-1" y="3" width="8" height="4" rx="0.7745"/><g class="cls-2"><rect class="cls-3" y="3" width="8" height="4"/><polygon class="cls-4" points="0 3 0 4.333 0 7 8 7 8 4.333 8 3 0 3"/><rect class="cls-5" y="6" width="8" height="1"/></g><path class="cls-6" d="M2.2451,5h3.51A.2451.2451,0,0,1,6,5.2451v2.48A.2745.2745,0,0,1,5.7255,8H2.2745A.2745.2745,0,0,1,2,7.7255v-2.48A.2451.2451,0,0,1,2.2451,5Z"/><path class="cls-7" d="M1.451,2H6.549A.451.451,0,0,1,7,2.451V3A0,0,0,0,1,7,3H1A0,0,0,0,1,1,3V2.451A.451.451,0,0,1,1.451,2Z"/><path class="cls-8" d="M2.2387,1H5.7613A.2387.2387,0,0,1,6,1.2387V3A0,0,0,0,1,6,3H2A0,0,0,0,1,2,3V1.2387A.2387.2387,0,0,1,2.2387,1Z"/><circle class="cls-9" cx="6.375" cy="4.375" r="0.375"/><path class="cls-10" d="M2.2387,1H5.7613A.2387.2387,0,0,1,6,1.2387V3A0,0,0,0,1,6,3H2A0,0,0,0,1,2,3V1.2387A.2387.2387,0,0,1,2.2387,1Z"/><path class="cls-11" d="M2.679,1.5H5.321a.179.179,0,0,1,.179.179V3a0,0,0,0,1,0,0h-3a0,0,0,0,1,0,0V1.679A.179.179,0,0,1,2.679,1.5Z"/><path class="cls-12" d="M2.6938,5H5.3062A.1938.1938,0,0,1,5.5,5.1938V7.283a.217.217,0,0,1-.217.217H2.717A.217.217,0,0,1,2.5,7.283V5.1938A.1938.1938,0,0,1,2.6938,5Z"/></svg>