<svg height="24px" width="24px" id="Camada_1" data-name="Camada 1" xmlns="http://www.w3.org/2000/svg" viewBox="0 0 24 24"><defs><style>.cls-1{fill:#b5b5b5;}.cls-2{fill:#f2f2f2;}.cls-3{fill:#fff;}.cls-4{fill:#666;}</style></defs><rect class="cls-1" x="2" y="1" width="16" height="18" rx="1"/><rect class="cls-2" x="3" y="2" width="14" height="16" rx="1"/><path class="cls-1" d="M21.7009,19.2991l-2.4018,2.4018A1.0213,1.0213,0,0,1,18.577,22H7a1,1,0,0,1-1-1V5A1,1,0,0,1,7,4H21a1,1,0,0,1,1,1V18.577A1.0213,1.0213,0,0,1,21.7009,19.2991Z"/><path class="cls-3" d="M20,19l-2,2H8a1,1,0,0,1-1-1V6A1,1,0,0,1,8,5H20a1,1,0,0,1,1,1V18Z"/><rect class="cls-4" x="9" y="8" width="10" height="1" rx="0.2282"/><rect class="cls-4" x="9" y="10" width="10" height="1" rx="0.2282"/><rect class="cls-4" x="9" y="12" width="10" height="1" rx="0.2282"/><rect class="cls-4" x="9" y="14" width="10" height="1" rx="0.2282"/><rect class="cls-4" x="9" y="16" width="10" height="1" rx="0.2282"/><path class="cls-1" d="M18,18.4844V22l4-4H18.4844A.4844.4844,0,0,0,18,18.4844Z"/></svg>