<svg height="8px" width="8px" id="Camada_1" data-name="Camada 1" xmlns="http://www.w3.org/2000/svg" xmlns:xlink="http://www.w3.org/1999/xlink" viewBox="0 0 8 8"><defs><style>.cls-1{fill:#fff;}.cls-2{fill:url(#Gradiente_sem_nome_7);}</style><linearGradient id="Gradiente_sem_nome_7" x1="2.4997" y1="1.4015" x2="5.5003" y2="6.5985" gradientUnits="userSpaceOnUse"><stop offset="0" stop-color="#ea6422"/><stop offset="1" stop-color="#d93e04"/></linearGradient></defs><circle class="cls-1" cx="4" cy="4" r="2.5"/><path class="cls-2" d="M4,1A3,3,0,1,0,7,4,3,3,0,0,0,4,1ZM6,4a1.9805,1.9805,0,0,1-.2829,1.01L2.99,2.2829A1.9879,1.9879,0,0,1,6,4ZM2,4a1.98,1.98,0,0,1,.2829-1.01L5.01,5.7171A1.9879,1.9879,0,0,1,2,4Z"/></svg>