<svg width="24px" height="24px" id="Camada_1" data-name="Camada 1" xmlns="http://www.w3.org/2000/svg" xmlns:xlink="http://www.w3.org/1999/xlink" viewBox="0 0 24 24"><defs><style>.cls-1{fill:url(#Gradiente_sem_nome_263);}.cls-2{fill:url(#Gradiente_sem_nome_11);}.cls-3{fill:url(#Gradiente_sem_nome_263-2);}.cls-4{fill:url(#Gradiente_sem_nome_11-2);}.cls-5{fill:#cad2d9;}.cls-6{fill:url(#Gradiente_sem_nome_267);}</style><linearGradient id="Gradiente_sem_nome_263" x1="9.5267" y1="14.8506" x2="13.625" y2="21.9491" gradientUnits="userSpaceOnUse"><stop offset="0" stop-color="#3b87ea"/><stop offset="1" stop-color="#257ae8"/></linearGradient><linearGradient id="Gradiente_sem_nome_11" x1="9.0517" y1="3.1249" x2="14.9978" y2="13.4239" gradientUnits="userSpaceOnUse"><stop offset="0" stop-color="#a0a7ac"/><stop offset="1" stop-color="#81888e"/></linearGradient><linearGradient id="Gradiente_sem_nome_263-2" x1="16.8995" y1="9.3254" x2="19.9" y2="14.5224" xlink:href="#Gradiente_sem_nome_263"/><linearGradient id="Gradiente_sem_nome_11-2" x1="10.0025" y1="4.8257" x2="17.4487" y2="9.1248" gradientTransform="matrix(0, 1, 1, 0, 1.5, -1.5)" xlink:href="#Gradiente_sem_nome_11"/><linearGradient id="Gradiente_sem_nome_267" x1="12.5" y1="8" x2="12.5" y2="11" gradientUnits="userSpaceOnUse"><stop offset="0" stop-opacity="0"/><stop offset="1" stop-opacity="0.15"/></linearGradient></defs><path class="cls-1" d="M11,14v3a3,3,0,1,0,3,3V14Zm0,7.5A1.5,1.5,0,1,1,12.5,20,1.5,1.5,0,0,1,11,21.5Z"/><path class="cls-2" d="M11,2V14h3V5A3,3,0,0,0,11,2Z"/><path class="cls-3" d="M14,14h6a3,3,0,1,0-3-3H14Zm6-1.5A1.5,1.5,0,1,1,21.5,11,1.5,1.5,0,0,1,20,12.5Z"/><path class="cls-4" d="M2,11H14v3H5A3,3,0,0,1,2,11Z"/><circle class="cls-5" cx="12.5" cy="12.5" r="0.75"/><rect class="cls-6" x="11" y="8" width="3" height="3"/></svg>