<svg  height="8px" width="8px" id="Camada_1" data-name="Camada 1" xmlns="http://www.w3.org/2000/svg" xmlns:xlink="http://www.w3.org/1999/xlink" viewBox="0 0 8 8"><defs><style>.cls-1{fill:url(#Gradiente_sem_nome_103);}</style><linearGradient id="Gradiente_sem_nome_103" x1="2.3919" y1="1.6808" x2="5.3899" y2="6.8735" gradientUnits="userSpaceOnUse"><stop offset="0" stop-color="#ffa321"/><stop offset="1" stop-color="#f5352e"/></linearGradient></defs><path class="cls-1" d="M4.5,2H4V1.2A.2587.2587,0,0,0,3.611.9769l-2.2279,1.3a.2585.2585,0,0,0,0,.4468l2.2279,1.3A.2587.2587,0,0,0,4,3.8V3h.5a1.5,1.5,0,0,1,0,3H2.2255A.2256.2256,0,0,0,2,6.2255v.549A.2256.2256,0,0,0,2.2255,7H4.5a2.5,2.5,0,0,0,0-5Z"/></svg>