<svg height="24px" width="24px" id="Camada_1" data-name="Camada 1" xmlns="http://www.w3.org/2000/svg" xmlns:xlink="http://www.w3.org/1999/xlink" viewBox="0 0 24 24"><defs><style>.cls-1{fill:url(#Gradiente_sem_nome_126);}.cls-2{fill:#ccc;}.cls-3{fill:#fff;}.cls-4{fill:#666;}.cls-5{fill:url(#Gradiente_sem_nome_71);}</style><linearGradient id="Gradiente_sem_nome_126" x1="4.9951" y1="0.8672" x2="19.0049" y2="25.1328" gradientUnits="userSpaceOnUse"><stop offset="0" stop-color="#dd9854"/><stop offset="1" stop-color="#b86f44"/></linearGradient><linearGradient id="Gradiente_sem_nome_71" x1="10.0217" y1="-0.097" x2="14.0407" y2="6.8641" gradientUnits="userSpaceOnUse"><stop offset="0" stop-color="#2b2b2b"/><stop offset="1" stop-color="#333"/></linearGradient></defs><path class="cls-1" d="M20.5883,2H17V4H7V2H3.4117A1.4118,1.4118,0,0,0,2,3.4117V22.5882A1.4118,1.4118,0,0,0,3.4117,24H20.5883A1.4118,1.4118,0,0,0,22,22.5882V3.4117A1.4118,1.4118,0,0,0,20.5883,2Z"/><path class="cls-2" d="M19.7009,19.2991l-2.4018,2.4018A1.0213,1.0213,0,0,1,16.577,22H5a1,1,0,0,1-1-1V5A1,1,0,0,1,5,4H19a1,1,0,0,1,1,1V18.577A1.0213,1.0213,0,0,1,19.7009,19.2991Z"/><path class="cls-3" d="M18,19l-2,2H6a1,1,0,0,1-1-1V6A1,1,0,0,1,6,5H18a1,1,0,0,1,1,1V18Z"/><rect class="cls-4" x="7" y="8" width="10" height="1" rx="0.2282"/><rect class="cls-4" x="7" y="10" width="10" height="1" rx="0.2282"/><rect class="cls-4" x="7" y="12" width="10" height="1" rx="0.2282"/><rect class="cls-4" x="7" y="14" width="10" height="1" rx="0.2282"/><rect class="cls-4" x="7" y="16" width="10" height="1" rx="0.2282"/><path class="cls-2" d="M16,18.4844V22l4-4H16.4844A.4844.4844,0,0,0,16,18.4844Z"/><path class="cls-5" d="M17.4676,2H14a2,2,0,0,0-4,0H6.5324A.5323.5323,0,0,0,6,2.5324V4.0015A.9984.9984,0,0,0,6.9985,5h10.003A.9984.9984,0,0,0,18,4.0015V2.5324A.5323.5323,0,0,0,17.4676,2ZM12,3a1,1,0,1,1,1-1A1,1,0,0,1,12,3Z"/></svg>