<svg height="8px" width="8px" id="Camada_1" data-name="Camada 1" xmlns="http://www.w3.org/2000/svg" xmlns:xlink="http://www.w3.org/1999/xlink" viewBox="0 0 8 8"><defs><style>.cls-1{fill:#edb51f;}.cls-2{fill:#e6a928;}.cls-3{fill:url(#Gradiente_sem_nome_5);}.cls-4{fill:url(#Gradiente_sem_nome_2);}.cls-5{fill:#fff;}</style><linearGradient id="Gradiente_sem_nome_5" x1="1.8115" y1="2.3769" x2="6.3731" y2="6.9385" gradientUnits="userSpaceOnUse"><stop offset="0" stop-color="#ffe599"/><stop offset="1" stop-color="#ffc938"/></linearGradient><linearGradient id="Gradiente_sem_nome_2" x1="4.4982" y1="6.4379" x2="7.3734" y2="3.5627" gradientTransform="matrix(1, 0, 0, -1, 0, 10)" gradientUnits="userSpaceOnUse"><stop offset="0.1453" stop-color="#9da5ad"/><stop offset="0.8939" stop-color="#5a6670"/></linearGradient></defs><path class="cls-1" d="M6.2941,2H4l-.7618-.7618A.8134.8134,0,0,0,2.6631,1H1.3765A.3765.3765,0,0,0,1,1.3765V3.918A.082.082,0,0,0,1.082,4H6.918A.082.082,0,0,0,7,3.918V2.7059A.7058.7058,0,0,0,6.2941,2Z"/><path class="cls-2" d="M1,6H7A0,0,0,0,1,7,6v.68A.32.32,0,0,1,6.68,7H1.32A.32.32,0,0,1,1,6.68V6A0,0,0,0,1,1,6Z"/><path class="cls-3" d="M6.455,2.5H4.7038a.864.864,0,0,0-.3861.0911l-.7126.3564A.4983.4983,0,0,1,3.3825,3H1.3215A.3216.3216,0,0,0,1,3.3215V6.1784A.3216.3216,0,0,0,1.3216,6.5H6.6785A.3216.3216,0,0,0,7,6.1785V3.045A.545.545,0,0,0,6.455,2.5Z"/><path class="cls-4" d="M7.4141,5.194A1.5541,1.5541,0,0,0,7.4281,5a1.7142,1.7142,0,0,0-.014-.2l.42-.326a.1014.1014,0,0,0,.0239-.128L7.46,3.654a.0976.0976,0,0,0-.1214-.044l-.4954.2a1.4391,1.4391,0,0,0-.3363-.196l-.0736-.53A.1007.1007,0,0,0,6.3337,3H5.5378a.1009.1009,0,0,0-.0995.084l-.0736.53a1.44,1.44,0,0,0-.3362.196l-.4955-.2a.0975.0975,0,0,0-.1213.044l-.398.692a.099.099,0,0,0,.0239.128l.42.326a1.7142,1.7142,0,0,0-.014.2,1.5541,1.5541,0,0,0,.014.194l-.42.332a.099.099,0,0,0-.0239.128l.398.692a.1.1,0,0,0,.1213.044l.4955-.202a1.38,1.38,0,0,0,.3362.198l.0736.53A.1009.1009,0,0,0,5.5378,7h.7959a.1007.1007,0,0,0,.0995-.084l.0736-.53a1.45,1.45,0,0,0,.3363-.198l.4954.202A.1.1,0,0,0,7.46,6.346l.398-.692a.1014.1014,0,0,0-.0239-.128Z"/><ellipse class="cls-5" cx="5.9354" cy="5" rx="0.6451" ry="0.6667"/></svg>