<svg  height="12px" width="12px" id="Camada_2" data-name="Camada 2" xmlns="http://www.w3.org/2000/svg" xmlns:xlink="http://www.w3.org/1999/xlink" viewBox="0 0 12 12"><defs><style>.cls-1{fill:none;}.cls-2{fill:#fff;}.cls-3{clip-path:url(#clip-path);}</style><clipPath id="clip-path"><polygon class="cls-1" points="8 1 4 1 4 4 8 4 8 8 11 8 11 4 11 1 8 1"/></clipPath></defs><path class="cls-2" d="M6.7174,10H2.2826A.2826.2826,0,0,1,2,9.7174V6H7V9.7174A.2826.2826,0,0,1,6.7174,10ZM8,10.2826V4.7174A.7174.7174,0,0,0,7.2826,4H1.7174A.7174.7174,0,0,0,1,4.7174v5.5652A.7174.7174,0,0,0,1.7174,11H7.2826A.7174.7174,0,0,0,8,10.2826Z"/><g class="cls-3"><path class="cls-2" d="M9.7174,7H5.2826A.2826.2826,0,0,1,5,6.7174V3h5V6.7174A.2826.2826,0,0,1,9.7174,7ZM11,7.2826V1.7174A.7174.7174,0,0,0,10.2826,1H4.7174A.7174.7174,0,0,0,4,1.7174V7.2826A.7174.7174,0,0,0,4.7174,8h5.5652A.7174.7174,0,0,0,11,7.2826Z"/></g></svg>